<?xml version="1.0" encoding="UTF-8" standalone="no"?>
<!DOCTYPE svg PUBLIC "-//W3C//DTD SVG 1.1//EN" "http://www.w3.org/Graphics/SVG/1.1/DTD/svg11.dtd">
<svg xmlns="http://www.w3.org/2000/svg" version="1.1" viewBox="0.00 0.00 620.00 620.00">
<g stroke-width="2.00" fill="none" stroke-linecap="butt">
<path stroke="#808080" vector-effect="non-scaling-stroke" d="
  M 317.56 115.42
  Q 273.06 95.05 225.25 104.18
  C 188.73 111.14 155.21 131.00 131.21 158.94
  C 110.75 182.76 96.71 214.47 94.59 246.23
  C 92.43 278.55 99.63 311.51 116.23 339.44
  Q 146.55 390.44 203.18 408.92
  C 231.24 418.07 260.72 418.83 289.97 412.66
  Q 320.18 406.30 343.98 389.23
  C 346.99 387.07 350.15 384.05 353.33 381.57
  Q 355.85 379.61 358.12 379.57
  C 362.69 379.50 364.95 382.71 365.11 387.07
  C 365.26 391.00 365.03 395.29 365.81 398.73
  C 368.36 410.06 373.67 414.24 383.64 424.18
  Q 434.34 474.75 484.93 525.60
  Q 486.79 527.47 488.68 525.63
  L 518.85 496.12
  A 3.25 3.23 -44.8 0 0 518.88 491.51
  Q 461.17 433.87 403.50 375.83
  C 402.12 374.44 400.04 373.30 398.26 373.34
  C 388.71 373.57 363.92 374.51 377.78 356.14
  Q 391.99 337.29 399.88 317.18
  Q 409.10 293.67 409.55 266.75
  C 409.96 242.02 405.80 215.59 395.83 192.90
  C 380.44 157.87 351.65 131.02 317.56 115.42"
/>
<path stroke="#808080" vector-effect="non-scaling-stroke" d="
  M 87.57 389.87
  A 1.68 1.67 -87.1 0 0 89.22 388.37
  Q 91.90 362.26 85.22 335.27
  Q 83.68 329.00 78.74 312.76
  C 70.57 285.81 71.49 257.18 75.48 227.75
  C 75.98 224.01 73.13 224.02 70.38 223.91
  Q 60.31 223.50 50.39 223.18
  A 2.08 2.07 -89.1 0 0 48.25 225.26
  L 48.28 387.04
  Q 48.28 390.05 51.29 390.04
  L 87.57 389.87"
/>
<path stroke="#808080" vector-effect="non-scaling-stroke" d="
  M 567.41 225.12
  A 1.38 1.38 0.0 0 0 566.03 223.74
  L 527.39 223.74
  A 1.38 1.38 0.0 0 0 526.01 225.12
  L 526.01 388.60
  A 1.38 1.38 0.0 0 0 527.39 389.98
  L 566.03 389.98
  A 1.38 1.38 0.0 0 0 567.41 388.60
  L 567.41 225.12"
/>
<path stroke="#808080" vector-effect="non-scaling-stroke" d="
  M 503.0329 225.0072
  A 1.05 1.05 0.0 0 0 501.9811 223.9591
  L 432.1212 224.0810
  A 1.05 1.05 0.0 0 0 431.0731 225.1328
  L 431.1071 244.6128
  A 1.05 1.05 0.0 0 0 432.1589 245.6609
  L 502.0188 245.5390
  A 1.05 1.05 0.0 0 0 503.0669 244.4872
  L 503.0329 225.0072"
/>
<path stroke="#808080" vector-effect="non-scaling-stroke" d="
  M 503.1875 273.1027
  A 1.35 1.35 0.0 0 0 501.8398 271.7504
  L 432.6799 271.6297
  A 1.35 1.35 0.0 0 0 431.3276 272.9773
  L 431.2925 293.0573
  A 1.35 1.35 0.0 0 0 432.6402 294.4096
  L 501.8001 294.5303
  A 1.35 1.35 0.0 0 0 503.1524 293.1827
  L 503.1875 273.1027"
/>
<path stroke="#808080" vector-effect="non-scaling-stroke" d="
  M 419.94 342.00
  L 503.90 341.70
  A 0.32 0.32 0.0 0 0 504.22 341.38
  L 504.19 333.23
  A 13.17 8.01 89.8 0 0 496.13 320.09
  L 427.55 320.33
  A 13.17 8.01 89.8 0 0 419.59 333.53
  L 419.62 341.68
  A 0.32 0.32 0.0 0 0 419.94 342.00"
/>
<path stroke="#808080" vector-effect="non-scaling-stroke" d="
  M 440.43 378.46
  C 444.73 383.00 451.02 389.93 457.75 389.97
  Q 479.72 390.11 501.13 389.84
  A 2.12 2.11 -0.9 0 0 503.22 387.69
  L 502.87 369.49
  A 1.54 1.54 0.0 0 0 501.33 367.98
  Q 465.37 367.98 430.50 368.40
  Q 429.82 368.41 429.78 368.44
  Q 428.60 369.00 429.70 369.70
  C 433.72 372.27 436.83 374.67 440.43 378.46"
/>
<path stroke="#808080" vector-effect="non-scaling-stroke" d="
  M 125.28 388.65
  L 118.51 381.09
  A 1.03 1.02 31.8 0 0 116.76 381.50
  Q 116.01 384.20 116.65 387.30
  C 117.41 390.99 122.37 389.86 124.98 389.48
  A 0.50 0.50 0.0 0 0 125.28 388.65"
/>
<path stroke="#808080" vector-effect="non-scaling-stroke" d="
  M 366.70 260.25
  A 113.38 113.38 0.0 0 0 253.32 146.87
  A 113.38 113.38 0.0 0 0 139.94 260.25
  A 113.38 113.38 0.0 0 0 253.32 373.63
  A 113.38 113.38 0.0 0 0 366.70 260.25"
/>
<path stroke="#808080" vector-effect="non-scaling-stroke" d="
  M 175.96 224.67
  Q 163.76 231.12 165.29 244.87
  Q 165.39 245.75 166.28 245.75
  L 339.75 245.75
  A 1.43 1.43 0.0 0 0 341.18 244.40
  C 341.58 237.17 338.08 228.37 331.09 225.04
  Q 328.72 223.91 324.72 223.90
  Q 252.05 223.88 179.39 223.91
  C 178.33 223.91 176.75 224.26 175.96 224.67"
/>
<path stroke="#808080" vector-effect="non-scaling-stroke" d="
  M 331.05 293.20
  C 338.57 289.93 342.58 280.44 341.66 272.50
  A 0.93 0.92 -3.5 0 0 340.74 271.69
  L 165.02 271.69
  A 0.80 0.80 0.0 0 0 164.22 272.42
  C 163.30 282.71 169.62 294.67 181.25 294.67
  Q 250.39 294.64 319.54 294.68
  Q 327.64 294.68 331.05 293.20"
/>
<path stroke="#808080" vector-effect="non-scaling-stroke" d="
  M 209.21 336.13
  C 232.42 343.38 259.68 343.52 283.20 339.83
  C 292.37 338.40 315.34 333.00 316.74 321.29
  A 0.65 0.65 0.0 0 0 316.09 320.56
  L 190.00 320.16
  A 0.59 0.59 0.0 0 0 189.41 320.73
  C 189.24 329.00 202.32 333.97 209.21 336.13"
/>
</g>
<path fill="#000000" d="
  M 0.00 0.00
  L 620.00 0.00
  L 620.00 620.00
  L 0.00 620.00
  L 0.00 0.00
  Z
  M 317.56 115.42
  Q 273.06 95.05 225.25 104.18
  C 188.73 111.14 155.21 131.00 131.21 158.94
  C 110.75 182.76 96.71 214.47 94.59 246.23
  C 92.43 278.55 99.63 311.51 116.23 339.44
  Q 146.55 390.44 203.18 408.92
  C 231.24 418.07 260.72 418.83 289.97 412.66
  Q 320.18 406.30 343.98 389.23
  C 346.99 387.07 350.15 384.05 353.33 381.57
  Q 355.85 379.61 358.12 379.57
  C 362.69 379.50 364.95 382.71 365.11 387.07
  C 365.26 391.00 365.03 395.29 365.81 398.73
  C 368.36 410.06 373.67 414.24 383.64 424.18
  Q 434.34 474.75 484.93 525.60
  Q 486.79 527.47 488.68 525.63
  L 518.85 496.12
  A 3.25 3.23 -44.8 0 0 518.88 491.51
  Q 461.17 433.87 403.50 375.83
  C 402.12 374.44 400.04 373.30 398.26 373.34
  C 388.71 373.57 363.92 374.51 377.78 356.14
  Q 391.99 337.29 399.88 317.18
  Q 409.10 293.67 409.55 266.75
  C 409.96 242.02 405.80 215.59 395.83 192.90
  C 380.44 157.87 351.65 131.02 317.56 115.42
  Z
  M 87.57 389.87
  A 1.68 1.67 -87.1 0 0 89.22 388.37
  Q 91.90 362.26 85.22 335.27
  Q 83.68 329.00 78.74 312.76
  C 70.57 285.81 71.49 257.18 75.48 227.75
  C 75.98 224.01 73.13 224.02 70.38 223.91
  Q 60.31 223.50 50.39 223.18
  A 2.08 2.07 -89.1 0 0 48.25 225.26
  L 48.28 387.04
  Q 48.28 390.05 51.29 390.04
  L 87.57 389.87
  Z
  M 567.41 225.12
  A 1.38 1.38 0.0 0 0 566.03 223.74
  L 527.39 223.74
  A 1.38 1.38 0.0 0 0 526.01 225.12
  L 526.01 388.60
  A 1.38 1.38 0.0 0 0 527.39 389.98
  L 566.03 389.98
  A 1.38 1.38 0.0 0 0 567.41 388.60
  L 567.41 225.12
  Z
  M 503.0329 225.0072
  A 1.05 1.05 0.0 0 0 501.9811 223.9591
  L 432.1212 224.0810
  A 1.05 1.05 0.0 0 0 431.0731 225.1328
  L 431.1071 244.6128
  A 1.05 1.05 0.0 0 0 432.1589 245.6609
  L 502.0188 245.5390
  A 1.05 1.05 0.0 0 0 503.0669 244.4872
  L 503.0329 225.0072
  Z
  M 503.1875 273.1027
  A 1.35 1.35 0.0 0 0 501.8398 271.7504
  L 432.6799 271.6297
  A 1.35 1.35 0.0 0 0 431.3276 272.9773
  L 431.2925 293.0573
  A 1.35 1.35 0.0 0 0 432.6402 294.4096
  L 501.8001 294.5303
  A 1.35 1.35 0.0 0 0 503.1524 293.1827
  L 503.1875 273.1027
  Z
  M 419.94 342.00
  L 503.90 341.70
  A 0.32 0.32 0.0 0 0 504.22 341.38
  L 504.19 333.23
  A 13.17 8.01 89.8 0 0 496.13 320.09
  L 427.55 320.33
  A 13.17 8.01 89.8 0 0 419.59 333.53
  L 419.62 341.68
  A 0.32 0.32 0.0 0 0 419.94 342.00
  Z
  M 440.43 378.46
  C 444.73 383.00 451.02 389.93 457.75 389.97
  Q 479.72 390.11 501.13 389.84
  A 2.12 2.11 -0.9 0 0 503.22 387.69
  L 502.87 369.49
  A 1.54 1.54 0.0 0 0 501.33 367.98
  Q 465.37 367.98 430.50 368.40
  Q 429.82 368.41 429.78 368.44
  Q 428.60 369.00 429.70 369.70
  C 433.72 372.27 436.83 374.67 440.43 378.46
  Z
  M 125.28 388.65
  L 118.51 381.09
  A 1.03 1.02 31.8 0 0 116.76 381.50
  Q 116.01 384.20 116.65 387.30
  C 117.41 390.99 122.37 389.86 124.98 389.48
  A 0.50 0.50 0.0 0 0 125.28 388.65
  Z"
/>
<path fill="#ffffff" d="
  M 317.56 115.42
  C 351.65 131.02 380.44 157.87 395.83 192.90
  C 405.80 215.59 409.96 242.02 409.55 266.75
  Q 409.10 293.67 399.88 317.18
  Q 391.99 337.29 377.78 356.14
  C 363.92 374.51 388.71 373.57 398.26 373.34
  C 400.04 373.30 402.12 374.44 403.50 375.83
  Q 461.17 433.87 518.88 491.51
  A 3.25 3.23 -44.8 0 1 518.85 496.12
  L 488.68 525.63
  Q 486.79 527.47 484.93 525.60
  Q 434.34 474.75 383.64 424.18
  C 373.67 414.24 368.36 410.06 365.81 398.73
  C 365.03 395.29 365.26 391.00 365.11 387.07
  C 364.95 382.71 362.69 379.50 358.12 379.57
  Q 355.85 379.61 353.33 381.57
  C 350.15 384.05 346.99 387.07 343.98 389.23
  Q 320.18 406.30 289.97 412.66
  C 260.72 418.83 231.24 418.07 203.18 408.92
  Q 146.55 390.44 116.23 339.44
  C 99.63 311.51 92.43 278.55 94.59 246.23
  C 96.71 214.47 110.75 182.76 131.21 158.94
  C 155.21 131.00 188.73 111.14 225.25 104.18
  Q 273.06 95.05 317.56 115.42
  Z
  M 366.70 260.25
  A 113.38 113.38 0.0 0 0 253.32 146.87
  A 113.38 113.38 0.0 0 0 139.94 260.25
  A 113.38 113.38 0.0 0 0 253.32 373.63
  A 113.38 113.38 0.0 0 0 366.70 260.25
  Z"
/>
<path fill="#000000" d="
  M 366.70 260.25
  A 113.38 113.38 0.0 0 1 253.32 373.63
  A 113.38 113.38 0.0 0 1 139.94 260.25
  A 113.38 113.38 0.0 0 1 253.32 146.87
  A 113.38 113.38 0.0 0 1 366.70 260.25
  Z
  M 175.96 224.67
  Q 163.76 231.12 165.29 244.87
  Q 165.39 245.75 166.28 245.75
  L 339.75 245.75
  A 1.43 1.43 0.0 0 0 341.18 244.40
  C 341.58 237.17 338.08 228.37 331.09 225.04
  Q 328.72 223.91 324.72 223.90
  Q 252.05 223.88 179.39 223.91
  C 178.33 223.91 176.75 224.26 175.96 224.67
  Z
  M 331.05 293.20
  C 338.57 289.93 342.58 280.44 341.66 272.50
  A 0.93 0.92 -3.5 0 0 340.74 271.69
  L 165.02 271.69
  A 0.80 0.80 0.0 0 0 164.22 272.42
  C 163.30 282.71 169.62 294.67 181.25 294.67
  Q 250.39 294.64 319.54 294.68
  Q 327.64 294.68 331.05 293.20
  Z
  M 209.21 336.13
  C 232.42 343.38 259.68 343.52 283.20 339.83
  C 292.37 338.40 315.34 333.00 316.74 321.29
  A 0.65 0.65 0.0 0 0 316.09 320.56
  L 190.00 320.16
  A 0.59 0.59 0.0 0 0 189.41 320.73
  C 189.24 329.00 202.32 333.97 209.21 336.13
  Z"
/>
<path fill="#ffffff" d="
  M 87.57 389.87
  L 51.29 390.04
  Q 48.28 390.05 48.28 387.04
  L 48.25 225.26
  A 2.08 2.07 -89.1 0 1 50.39 223.18
  Q 60.31 223.50 70.38 223.91
  C 73.13 224.02 75.98 224.01 75.48 227.75
  C 71.49 257.18 70.57 285.81 78.74 312.76
  Q 83.68 329.00 85.22 335.27
  Q 91.90 362.26 89.22 388.37
  A 1.68 1.67 -87.1 0 1 87.57 389.87
  Z"
/>
<rect fill="#ffffff" x="526.01" y="223.74" width="41.40" height="166.24" rx="1.38"/>
<path fill="#ffffff" d="
  M 175.96 224.67
  C 176.75 224.26 178.33 223.91 179.39 223.91
  Q 252.05 223.88 324.72 223.90
  Q 328.72 223.91 331.09 225.04
  C 338.08 228.37 341.58 237.17 341.18 244.40
  A 1.43 1.43 0.0 0 1 339.75 245.75
  L 166.28 245.75
  Q 165.39 245.75 165.29 244.87
  Q 163.76 231.12 175.96 224.67
  Z"
/>
<rect fill="#ffffff" x="-35.98" y="-10.79" transform="translate(467.07,234.81) rotate(-0.1)" width="71.96" height="21.58" rx="1.05"/>
<rect fill="#ffffff" x="-35.93" y="-11.39" transform="translate(467.24,283.08) rotate(0.1)" width="71.86" height="22.78" rx="1.35"/>
<path fill="#ffffff" d="
  M 341.66 272.50
  C 342.58 280.44 338.57 289.93 331.05 293.20
  Q 327.64 294.68 319.54 294.68
  Q 250.39 294.64 181.25 294.67
  C 169.62 294.67 163.30 282.71 164.22 272.42
  A 0.80 0.80 0.0 0 1 165.02 271.69
  L 340.74 271.69
  A 0.93 0.92 -3.5 0 1 341.66 272.50
  Z"
/>
<path fill="#ffffff" d="
  M 209.21 336.13
  C 202.32 333.97 189.24 329.00 189.41 320.73
  A 0.59 0.59 0.0 0 1 190.00 320.16
  L 316.09 320.56
  A 0.65 0.65 0.0 0 1 316.74 321.29
  C 315.34 333.00 292.37 338.40 283.20 339.83
  C 259.68 343.52 232.42 343.38 209.21 336.13
  Z"
/>
<path fill="#ffffff" d="
  M 419.94 342.00
  A 0.32 0.32 0.0 0 1 419.62 341.68
  L 419.59 333.53
  A 13.17 8.01 89.8 0 1 427.55 320.33
  L 496.13 320.09
  A 13.17 8.01 89.8 0 1 504.19 333.23
  L 504.22 341.38
  A 0.32 0.32 0.0 0 1 503.90 341.70
  L 419.94 342.00
  Z"
/>
<path fill="#ffffff" d="
  M 457.75 389.97
  C 451.02 389.93 444.73 383.00 440.43 378.46
  C 436.83 374.67 433.72 372.27 429.70 369.70
  Q 428.60 369.00 429.78 368.44
  Q 429.82 368.41 430.50 368.40
  Q 465.37 367.98 501.33 367.98
  A 1.54 1.54 0.0 0 1 502.87 369.49
  L 503.22 387.69
  A 2.12 2.11 -0.9 0 1 501.13 389.84
  Q 479.72 390.11 457.75 389.97
  Z"
/>
<path fill="#ffffff" d="
  M 125.28 388.65
  A 0.50 0.50 0.0 0 1 124.98 389.48
  C 122.37 389.86 117.41 390.99 116.65 387.30
  Q 116.01 384.20 116.76 381.50
  A 1.03 1.02 31.8 0 1 118.51 381.09
  L 125.28 388.65
  Z"
/>
</svg>
